<?xml version="1.0" encoding="iso-8859-1"?>
<!-- Generator: Adobe Illustrator 20.1.0, SVG Export Plug-In . SVG Version: 6.00 Build 0)  -->
<svg version="1.1" id="Microchip" xmlns="http://www.w3.org/2000/svg" xmlns:xlink="http://www.w3.org/1999/xlink" x="0px" y="0px"
	 viewBox="0 0 64 64" style="enable-background:new 0 0 64 64;" xml:space="preserve">
<g>
	<g id="XMLID_17_">
		<g>
			<polygon style="fill:#AFB6BB;" points="22,54 22,58 18,58 14,58 14,54 			"/>
			<polygon style="fill:#AFB6BB;" points="36,54 36,58 32,58 28,58 28,54 			"/>
			<polygon style="fill:#AFB6BB;" points="50,54 50,58 46,58 42,58 42,54 			"/>
			<polygon style="fill:#AFB6BB;" points="50,6 50,10 42,10 42,6 46,6 			"/>
			<polygon style="fill:#AFB6BB;" points="36,6 36,10 28,10 28,6 32,6 			"/>
			<polygon style="fill:#AFB6BB;" points="22,6 22,10 14,10 14,6 18,6 			"/>
			<polygon style="fill:#AFB6BB;" points="58,46 58,50 54,50 54,42 58,42 			"/>
			<polygon style="fill:#AFB6BB;" points="58,18 58,22 54,22 54,14 58,14 			"/>
			<polygon style="fill:#AFB6BB;" points="58,32 58,36 54,36 54,28 58,28 			"/>
			<polygon style="fill:#AFB6BB;" points="10,42 10,50 6,50 6,46 6,42 			"/>
			<polygon style="fill:#AFB6BB;" points="10,28 10,36 6,36 6,32 6,28 			"/>
			<polygon style="fill:#AFB6BB;" points="10,14 10,22 6,22 6,18 6,14 			"/>
			<path style="fill:#E7ECED;" d="M49,21v27c0,0.55-0.45,1-1,1H16c-0.55,0-1-0.45-1-1V21H49z"/>
			<g>
				<path style="fill:#DDE1E2;" d="M15,21v27c0,0.55,0.45,1,1,1h4l28-28H15z"/>
			</g>
			<path style="fill:#7E8488;" d="M49,16v5H15v-5c0-0.55,0.45-1,1-1h32C48.55,15,49,15.45,49,16z"/>
			<path style="fill:#36C63F;" d="M54,50v3c0,0.55-0.45,1-1,1h-3h-8h-6h-8h-6h-8h-3c-0.55,0-1-0.45-1-1v-3v-8v-6v-8v-6v-8v-3
				c0-0.55,0.45-1,1-1h3h8h6h8h6h8h3c0.55,0,1,0.45,1,1v3v8v6v8v6V50z M49,48V21v-5c0-0.55-0.45-1-1-1H16c-0.55,0-1,0.45-1,1v5v27
				c0,0.55,0.45,1,1,1h32C48.55,49,49,48.55,49,48z"/>
		</g>
		<g>
			<path d="M48,14H16c-1.103,0-2,0.897-2,2v32c0,1.103,0.897,2,2,2h32c1.103,0,2-0.897,2-2V16C50,14.897,49.103,14,48,14z M48,16v4
				H16v-4H48z M16,48V22h32v26H16z"/>
			<path d="M58,23c0.553,0,1-0.448,1-1v-3h5v-2h-5v-3c0-0.552-0.447-1-1-1h-3v-2c0-1.103-0.897-2-2-2h-2V6c0-0.552-0.448-1-1-1h-3V0
				h-2v5h-3c-0.552,0-1,0.448-1,1v3h-4V6c0-0.552-0.448-1-1-1h-3V0h-2v5h-3c-0.552,0-1,0.448-1,1v3h-4V6c0-0.552-0.448-1-1-1h-3V0
				h-2v5h-3c-0.552,0-1,0.448-1,1v3h-2c-1.103,0-2,0.897-2,2v2H6c-0.552,0-1,0.448-1,1v3H0v2h5v3c0,0.552,0.448,1,1,1h3v4H6
				c-0.552,0-1,0.448-1,1v3H0v2h5v3c0,0.552,0.448,1,1,1h3v4H6c-0.552,0-1,0.448-1,1v3H0v2h5v3c0,0.552,0.448,1,1,1h3v2
				c0,1.103,0.897,2,2,2h2v3c0,0.552,0.448,1,1,1h3v5h2v-5h3c0.552,0,1-0.448,1-1v-3h4v3c0,0.552,0.448,1,1,1h3v5h2v-5h3
				c0.552,0,1-0.448,1-1v-3h4v3c0,0.552,0.448,1,1,1h3v5h2v-5h3c0.552,0,1-0.448,1-1v-3h2c1.103,0,2-0.897,2-2v-2h3
				c0.553,0,1-0.448,1-1v-3h5v-2h-5v-3c0-0.552-0.447-1-1-1h-3v-4h3c0.553,0,1-0.448,1-1v-3h5v-2h-5v-3c0-0.552-0.447-1-1-1h-3v-4
				H58z M57,21h-2v-6h2V21z M43,7h6v2h-6V7z M29,7h6v2h-6V7z M15,7h6v2h-6V7z M7,15h2v6H7V15z M7,29h2v6H7V29z M7,43h2v6H7V43z
				 M21,57h-6v-2h6V57z M35,57h-6v-2h6V57z M49,57h-6v-2h6V57z M53,53h-3h-8h-6h-8h-6h-8h-3v-3v-8v-6v-8v-6v-8v-3h3h8h6h8h6h8h3v3v8
				v6v8v6v8V53z M57,49h-2v-6h2V49z M57,35h-2v-6h2V35z"/>
			<rect x="26" y="39" width="19" height="2"/>
			<rect x="43" y="43" width="2" height="2"/>
			<rect x="39" y="43" width="2" height="2"/>
			<rect x="35" y="43" width="2" height="2"/>
			<rect x="26" y="35" width="9" height="2"/>
		</g>
	</g>
</g>
</svg>
