<?xml version="1.0" encoding="utf-8"?>
<!-- Generator: Adobe Illustrator 18.0.0, SVG Export Plug-In . SVG Version: 6.00 Build 0)  -->
<!DOCTYPE svg PUBLIC "-//W3C//DTD SVG 1.1//EN" "http://www.w3.org/Graphics/SVG/1.1/DTD/svg11.dtd">
<svg version="1.1" id="Layer_1" xmlns="http://www.w3.org/2000/svg" xmlns:xlink="http://www.w3.org/1999/xlink" x="0px" y="0px"
	 viewBox="0 0 48 48" enable-background="new 0 0 48 48" xml:space="preserve">
<g>
	<g>
		<g>
			<rect x="32.5" y="30.7" fill="#E8EAE9" width="4.3" height="11.1"/>
		</g>
		<g>
			<g>
				<g>
					<g>
						<g>
							<g>
								<g>
									<g>
										<rect y="43" fill="#E8EAE9" width="48" height="4.3"/>
									</g>
								</g>
							</g>
						</g>
					</g>
				</g>
			</g>
		</g>
		<g>
			<rect x="7" y="30.7" fill="#E8EAE9" width="4.3" height="11.1"/>
		</g>
		<g>
			<polygon fill="#66C6B9" points="14.8,42.2 14.8,48 3.6,48 3.6,42.2 6.3,42.2 6.3,38.8 12.1,38.8 12.1,42.2 			"/>
		</g>
		<g>
			<polygon fill="#66C6B9" points="40.3,42.2 40.3,48 29,48 29,42.2 31.8,42.2 31.8,38.8 37.6,38.8 37.6,42.2 			"/>
		</g>
		<g>
			<g>
				<path fill="#415A6B" d="M16.4,33.1H2c-1.1,0-2-0.9-2-2V2c0-1.1,0.9-2,2-2h14.4c1.1,0,2,0.9,2,2v29.1
					C18.4,32.2,17.5,33.1,16.4,33.1z"/>
				<g>
					<g>
						<rect x="2.9" y="2.9" fill="#344A5E" width="12.5" height="3.5"/>
					</g>
					<g>
						<rect x="2.9" y="9.6" fill="#344A5E" width="12.5" height="3.5"/>
					</g>
				</g>
			</g>
			<circle fill="#344A5E" cx="9.2" cy="22" r="1.9"/>
		</g>
		<g>
			<polygon fill="#344A5E" points="40.2,33.1 29.1,33.1 31.4,28.3 37.9,28.3 			"/>
			<g>
				<path fill="#415A6B" d="M46,29.3H23.3c-1.1,0-2-0.9-2-2V10.3c0-1.1,0.9-2,2-2H46c1.1,0,2,0.9,2,2v17.1
					C48,28.5,47.1,29.3,46,29.3z"/>
				<rect x="24" y="11" fill="#8AD7F8" width="21.3" height="13.7"/>
			</g>
		</g>
	</g>
</g>
</svg>
