<?xml version="1.0" encoding="utf-8"?>
<!-- Generator: Adobe Illustrator 18.0.0, SVG Export Plug-In . SVG Version: 6.00 Build 0)  -->
<!DOCTYPE svg PUBLIC "-//W3C//DTD SVG 1.1//EN" "http://www.w3.org/Graphics/SVG/1.1/DTD/svg11.dtd">
<svg version="1.1" id="Layer_1" xmlns="http://www.w3.org/2000/svg" xmlns:xlink="http://www.w3.org/1999/xlink" x="0px" y="0px"
	 viewBox="0 0 48 48" enable-background="new 0 0 48 48" xml:space="preserve">
<g>
	<g>
		<g>
			<polygon fill="#F3705A" points="15,29.1 15,46.3 6.5,46.3 6.5,48 0,44.3 6.5,40.5 6.5,42.3 11,42.3 11,29.1 			"/>
		</g>
		<g>
			<polygon fill="#8AD7F8" points="41.5,48 41.5,46.3 33.1,46.3 33.1,29.1 37.1,29.1 37.1,42.3 41.5,42.3 41.5,40.5 48,44.3 			"/>
		</g>
		<g>
			<polygon fill="#415A6B" points="27.7,41.5 24,48 20.3,41.5 22,41.5 22,29.1 26,29.1 26,41.5 			"/>
		</g>
		<path fill="#F3F3F3" d="M41.1,29.1c3.8,0,6.9-3.1,6.9-6.9c0-3.7-2.9-6.8-6.7-6.9c0.4-2.6,0-5.3-1.2-7.9
			c-3.3-6.6-11.2-9.3-17.9-6.1c-3.6,1.8-6.1,5-7,8.7c-1.5-0.8-3.4-0.8-5,0c-1.4,0.7-2.3,1.9-2.8,3.3C3.3,13.6,0,17,0,21.2
			c0,4.4,3.5,7.9,7.9,7.9H41.1z"/>
	</g>
</g>
</svg>
