<?xml version="1.0" encoding="utf-8"?>
<!-- Generator: Adobe Illustrator 18.0.0, SVG Export Plug-In . SVG Version: 6.00 Build 0)  -->
<!DOCTYPE svg PUBLIC "-//W3C//DTD SVG 1.1//EN" "http://www.w3.org/Graphics/SVG/1.1/DTD/svg11.dtd">
<svg version="1.1" id="Layer_1" xmlns="http://www.w3.org/2000/svg" xmlns:xlink="http://www.w3.org/1999/xlink" x="0px" y="0px"
	 viewBox="0 0 48 48" enable-background="new 0 0 48 48" xml:space="preserve">
<g>
	<g>
		<g>
			<g>
				<g>
					<g>
						<g>
							<g>
								<g>
									<g>
										<g>
											<polygon fill="#E8EAE9" points="48,42.7 48,47.2 0,47.2 0,42.7 21.7,42.7 21.7,29.7 26.3,29.7 26.3,42.7 											"/>
										</g>
									</g>
									<g>
										<polygon fill="#415A6B" points="29.9,41.9 29.9,48 18.1,48 18.1,41.9 20.9,41.9 20.9,38.3 27.1,38.3 27.1,41.9 										
											"/>
									</g>
								</g>
							</g>
						</g>
					</g>
				</g>
			</g>
		</g>
		<g>
			<g>
				<path fill="#F7B64C" d="M42,11.5V5.9c0-1-0.8-1.8-1.8-1.8H20.4l-1.8-3.2C18.3,0.3,17.7,0,17.1,0H8.7C7.8,0,7,0.8,7,1.8v9.7H42z"
					/>
			</g>
			<g>
				<g>
					<path fill="#FFD15C" d="M44,11.5c1.1,0,2,1,1.7,2.1l-4.4,19.2c-0.2,0.8-0.9,1.4-1.7,1.4H8.4c-0.8,0-1.5-0.6-1.7-1.4L2.3,13.6
						C2,12.5,2.8,11.5,4,11.5L44,11.5z"/>
				</g>
			</g>
		</g>
	</g>
</g>
</svg>
