<?xml version="1.0" encoding="utf-8"?>
<!-- Generator: Adobe Illustrator 18.0.0, SVG Export Plug-In . SVG Version: 6.00 Build 0)  -->
<!DOCTYPE svg PUBLIC "-//W3C//DTD SVG 1.1//EN" "http://www.w3.org/Graphics/SVG/1.1/DTD/svg11.dtd">
<svg version="1.1" id="Layer_1" xmlns="http://www.w3.org/2000/svg" xmlns:xlink="http://www.w3.org/1999/xlink" x="0px" y="0px"
	 viewBox="0 0 512 512" enable-background="new 0 0 512 512" xml:space="preserve">
<g>
	<path fill="#FFD05C" d="M456,67.7H56c-11.7,0-21.2,9.5-21.2,21.2v399.9c0,11.7,9.5,21.2,21.2,21.2H456c11.7,0,21.2-9.5,21.2-21.2
		V88.9C477.1,77.2,467.7,67.7,456,67.7z"/>
	<polygon fill="#FFFFFF" points="432,86.6 80,86.6 80,464.8 338.2,464.8 432,371 	"/>
	<polygon fill="#65C5B8" points="338.2,464.8 432,371 338.2,371 	"/>
	<path fill="#41596B" d="M319.7,34.9h-30.9C288.9,16.7,274.2,2,256,2c-18.1,0-32.9,14.7-32.9,32.9h-30.8
		c-18.7,0-33.9,15.1-33.9,33.9V107h195.1V68.7C353.6,50,338.4,34.9,319.7,34.9z M256,17c9.9,0,17.8,8,17.8,17.8
		c0,9.8-8,17.8-17.8,17.8c-9.8,0-17.8-8-17.8-17.8C238.2,25,246.2,17,256,17z"/>
	<rect x="129.5" y="143.5" fill="#65C5B8" width="58.9" height="59"/>
	<rect x="209.8" y="162.6" fill="#E5E8EC" width="172.8" height="20.7"/>
	<rect x="209.8" y="244.7" fill="#F2F2F2" width="172.8" height="20.7"/>
	<rect x="209.8" y="326.8" fill="#F2F2F2" width="172.8" height="20.7"/>
	<rect x="129.4" y="225.6" fill="#F2705B" width="58.9" height="58.9"/>
	<rect x="129.4" y="307.7" fill="#89D6F7" width="58.9" height="58.9"/>
	<polygon fill="#334A5E" points="151,193.3 134.1,176.4 142,168.4 151,177.4 175.8,152.6 183.8,160.5 	"/>
	<path fill="#334A5E" d="M319.7,34.9h-30.9C288.9,16.7,274.2,2,256,2c-18.1,0-32.9,14.7-32.9,32.9h-30.8
		c-18.7,0-33.9,15.1-33.9,33.9v5.6c0-18.7,15.2-33.9,33.9-33.9h30.8c0-18.2,14.7-32.9,32.9-32.9c18.2,0,32.9,14.7,32.9,32.9h30.9
		c18.7,0,33.9,15.1,33.9,33.9v-5.6C353.6,50,338.4,34.9,319.7,34.9z"/>
</g>
</svg>
