<?xml version="1.0" encoding="utf-8"?>
<!-- Generator: Adobe Illustrator 18.0.0, SVG Export Plug-In . SVG Version: 6.00 Build 0)  -->
<!DOCTYPE svg PUBLIC "-//W3C//DTD SVG 1.1//EN" "http://www.w3.org/Graphics/SVG/1.1/DTD/svg11.dtd">
<svg version="1.1" id="Layer_1" xmlns="http://www.w3.org/2000/svg" xmlns:xlink="http://www.w3.org/1999/xlink" x="0px" y="0px"
	 viewBox="0 0 48 48" enable-background="new 0 0 48 48" xml:space="preserve">
<g>
	<g>
		<g>
			<g>
				<path fill="#66C6B9" d="M45,37.3H3c-1.7,0-3-1.3-3-3V13.7c0-1.7,1.3-3,3-3h42c1.7,0,3,1.3,3,3v20.6C48,36,46.7,37.3,45,37.3z"/>
			</g>
			<g>
				<rect x="7.6" y="16.8" fill="#4EC0AA" width="32.8" height="14.5"/>
			</g>
			<g>
				<g>
					<g>
						<rect x="5.3" y="8.1" fill="#344A5E" width="5.5" height="2.6"/>
						<g>
							<rect x="6.3" y="4.2" fill="#E8EAE9" width="3.3" height="3.9"/>
						</g>
					</g>
					<g>
						<rect x="13.3" y="8.1" fill="#344A5E" width="5.5" height="2.6"/>
						<g>
							<rect x="14.3" y="4.2" fill="#E8EAE9" width="3.3" height="3.9"/>
						</g>
					</g>
					<g>
						<rect x="21.3" y="8.1" fill="#344A5E" width="5.5" height="2.6"/>
						<g>
							<rect x="22.3" y="4.2" fill="#E8EAE9" width="3.3" height="3.9"/>
						</g>
					</g>
					<g>
						<rect x="29.3" y="8.1" fill="#344A5E" width="5.5" height="2.6"/>
						<g>
							<rect x="30.3" y="4.2" fill="#E8EAE9" width="3.3" height="3.9"/>
						</g>
					</g>
					<g>
						<rect x="37.3" y="8.1" fill="#344A5E" width="5.5" height="2.6"/>
						<g>
							<rect x="38.3" y="4.2" fill="#E8EAE9" width="3.3" height="3.9"/>
						</g>
					</g>
				</g>
				<g>
					<g>
						<rect x="37.3" y="37.3" fill="#344A5E" width="5.5" height="2.6"/>
						<g>
							<rect x="38.3" y="39.9" fill="#E8EAE9" width="3.3" height="3.9"/>
						</g>
					</g>
					<g>
						<rect x="29.3" y="37.3" fill="#344A5E" width="5.5" height="2.6"/>
						<g>
							<rect x="30.3" y="39.9" fill="#E8EAE9" width="3.3" height="3.9"/>
						</g>
					</g>
					<g>
						<rect x="21.3" y="37.3" fill="#344A5E" width="5.5" height="2.6"/>
						<g>
							<rect x="22.3" y="39.9" fill="#E8EAE9" width="3.3" height="3.9"/>
						</g>
					</g>
					<g>
						<rect x="13.3" y="37.3" fill="#344A5E" width="5.5" height="2.6"/>
						<g>
							<rect x="14.3" y="39.9" fill="#E8EAE9" width="3.3" height="3.9"/>
						</g>
					</g>
					<g>
						<rect x="5.3" y="37.3" fill="#344A5E" width="5.5" height="2.6"/>
						<g>
							<rect x="6.3" y="39.9" fill="#E8EAE9" width="3.3" height="3.9"/>
						</g>
					</g>
				</g>
			</g>
		</g>
	</g>
</g>
</svg>
