<?xml version="1.0" encoding="utf-8"?>
<!-- Generator: Adobe Illustrator 18.0.0, SVG Export Plug-In . SVG Version: 6.00 Build 0)  -->
<!DOCTYPE svg PUBLIC "-//W3C//DTD SVG 1.1//EN" "http://www.w3.org/Graphics/SVG/1.1/DTD/svg11.dtd">
<svg version="1.1" id="Layer_1" xmlns="http://www.w3.org/2000/svg" xmlns:xlink="http://www.w3.org/1999/xlink" x="0px" y="0px"
	 viewBox="0 0 48 48" enable-background="new 0 0 48 48" xml:space="preserve">
<g>
	<g>
		<g>
			<rect x="21.4" y="14.2" fill="#ADB3BA" width="5.2" height="24.9"/>
		</g>
		<g>
			<rect y="41.9" fill="#ADB3BA" width="48" height="5.2"/>
		</g>
		<g>
			<polygon fill="#415A6B" points="30.6,40.9 30.6,48 17.4,48 17.4,40.9 20.5,40.9 20.5,37.1 27.5,37.1 27.5,40.9 			"/>
		</g>
	</g>
	<g>
		<path fill="#E8EAE9" d="M45,15.3H3c-1.7,0-3-1.3-3-3V3c0-1.7,1.3-3,3-3h42c1.7,0,3,1.3,3,3v9.3C48,14,46.7,15.3,45,15.3z"/>
		<g>
			<rect x="3.2" y="3.2" fill="#ADB3BA" width="3.7" height="8.9"/>
		</g>
		<g>
			<rect x="10.1" y="3.2" fill="#ADB3BA" width="3.7" height="8.9"/>
		</g>
		<g>
			<rect x="16.9" y="3.2" fill="#ADB3BA" width="3.7" height="8.9"/>
		</g>
	</g>
	<g>
		<g>
			<path fill="#E8EAE9" d="M45,34.6H3c-1.7,0-3-1.3-3-3v-9.3c0-1.7,1.3-3,3-3h42c1.7,0,3,1.3,3,3v9.3C48,33.3,46.7,34.6,45,34.6z"/>
		</g>
		<g>
			<rect x="3.2" y="22.5" fill="#ADB3BA" width="3.7" height="8.9"/>
		</g>
		<g>
			<rect x="10.1" y="22.5" fill="#ADB3BA" width="3.7" height="8.9"/>
		</g>
		<g>
			<rect x="16.9" y="22.5" fill="#ADB3BA" width="3.7" height="8.9"/>
		</g>
		<circle fill="#F3705A" cx="41.3" cy="26.9" r="2.5"/>
		<circle fill="#F3705A" cx="41.3" cy="7.7" r="2.5"/>
	</g>
</g>
</svg>
