<?xml version="1.0" encoding="utf-8"?>
<!-- Generator: Adobe Illustrator 18.0.0, SVG Export Plug-In . SVG Version: 6.00 Build 0)  -->
<!DOCTYPE svg PUBLIC "-//W3C//DTD SVG 1.1//EN" "http://www.w3.org/Graphics/SVG/1.1/DTD/svg11.dtd">
<svg version="1.1" id="Layer_1" xmlns="http://www.w3.org/2000/svg" xmlns:xlink="http://www.w3.org/1999/xlink" x="0px" y="0px"
	 viewBox="0 0 48 48" enable-background="new 0 0 48 48" xml:space="preserve">
<g>
	<g>
		<g>
			<g>
				<g>
					<g>
						<g>
							<g>
								<g>
									<g>
										<g>
											<polygon fill="#66C6B9" points="48,42.9 48,47.2 0,47.2 0,42.9 21.8,42.9 21.8,30.3 26.2,30.3 26.2,42.9 											"/>
										</g>
									</g>
									<g>
										<polygon fill="#415A6B" points="29.8,42.1 29.8,48 18.2,48 18.2,42.1 21,42.1 21,38.6 27,38.6 27,42.1 										"/>
									</g>
								</g>
							</g>
						</g>
					</g>
				</g>
			</g>
		</g>
		<g>
			<path fill="#F3F3F3" d="M38.8,35.7H9.2c-1.7,0-3-1.3-3-3V3c0-1.7,1.3-3,3-3h29.7c1.7,0,3,1.3,3,3v29.7
				C41.8,34.3,40.5,35.7,38.8,35.7z"/>
			<polygon fill="#415A6B" points="38.6,3.3 38.6,24.7 33.2,24.7 33.2,28.5 29.3,28.5 29.3,32.4 18.7,32.4 18.7,28.5 14.8,28.5 
				14.8,24.7 9.4,24.7 9.4,3.3 			"/>
			<g>
				<rect x="12.7" y="6.6" fill="#FFD15C" width="3.5" height="4.9"/>
				<rect x="19.1" y="6.6" fill="#FFD15C" width="3.5" height="4.9"/>
				<rect x="25.4" y="6.6" fill="#FFD15C" width="3.5" height="4.9"/>
				<rect x="31.8" y="6.6" fill="#FFD15C" width="3.5" height="4.9"/>
			</g>
		</g>
	</g>
</g>
</svg>
