<?xml version="1.0" encoding="utf-8"?>
<!-- Generator: Adobe Illustrator 18.0.0, SVG Export Plug-In . SVG Version: 6.00 Build 0)  -->
<!DOCTYPE svg PUBLIC "-//W3C//DTD SVG 1.1//EN" "http://www.w3.org/Graphics/SVG/1.1/DTD/svg11.dtd">
<svg version="1.1" id="Layer_1" xmlns="http://www.w3.org/2000/svg" xmlns:xlink="http://www.w3.org/1999/xlink" x="0px" y="0px"
	 viewBox="0 0 48 48" enable-background="new 0 0 48 48" xml:space="preserve">
<g>
	<g>
		<g>
			<path fill="#415A6B" d="M3,29.7h42c1.7,0,3,1.3,3,3V45c0,1.7-1.3,3-3,3H3c-1.7,0-3-1.3-3-3l0-12.3C0,31.1,1.3,29.7,3,29.7z"/>
		</g>
		<g>
			<path fill="#F3705A" d="M24,29.7h21c1.7,0,3,1.3,3,3V45c0,1.7-1.3,3-3,3H24V29.7z"/>
		</g>
		<g>
			<g>
				<path fill="#FFFFFF" d="M8.1,39.9l1.5-4.9h2l1.5,4.9l1.7-4.9h2.1l-3,8.6h-1.4l-1.9-6l-1.9,6H7.3l-3-8.6h2.1L8.1,39.9z"/>
				<path fill="#FFFFFF" d="M19.5,43.5h-1.8v-6.6h1.8V43.5z"/>
			</g>
			<circle fill="#FFFFFF" cx="18.6" cy="35.3" r="1.1"/>
		</g>
		<g>
			<g>
				<path fill="#FFFFFF" d="M37.2,35v1.6h-3.9v1.8H37v1.6h-3.7v3.3h-1.9V35H37.2z"/>
			</g>
			<g>
				<g>
					<path fill="#FFFFFF" d="M40.4,43.4h-1.8V37h1.8V43.4z"/>
				</g>
				<circle fill="#FFFFFF" cx="39.5" cy="35.4" r="1.1"/>
			</g>
		</g>
		<g>
			<g>
				<circle fill="#8AD7F8" cx="24" cy="23.7" r="3.4"/>
			</g>
			<g>
				<g>
					<path fill="#8AD7F8" d="M37,8.3c-7.5-6.4-18.5-6.4-26,0c-0.7,0.6-1.7,0.6-2.4-0.1l0,0C7.9,7.5,7.9,6.3,8.7,5.6
						c8.8-7.5,21.8-7.5,30.6,0c0.8,0.7,0.8,1.8,0.1,2.6l0,0C38.7,8.8,37.7,8.9,37,8.3z"/>
				</g>
				<g>
					<path fill="#8AD7F8" d="M13.6,13.1L13.6,13.1c-0.8-0.8-0.7-2,0.2-2.6C16.7,8.2,20.2,7,24,7c3.8,0,7.3,1.2,10.2,3.5
						c0.8,0.7,0.9,1.9,0.2,2.6l0,0c-0.6,0.6-1.6,0.7-2.3,0.1c-2.3-1.8-5.1-2.8-8.1-2.8s-5.8,1-8.1,2.8
						C15.2,13.8,14.2,13.8,13.6,13.1z"/>
				</g>
				<g>
					<path fill="#8AD7F8" d="M18.6,18.2L18.6,18.2c-0.8-0.8-0.7-2.1,0.3-2.7c3.1-2,7.2-2,10.3,0c0.9,0.6,1,1.9,0.3,2.6l0,0
						c-0.6,0.6-1.5,0.7-2.1,0.3c-2-1.3-4.5-1.3-6.5,0C20.1,18.9,19.2,18.7,18.6,18.2z"/>
				</g>
			</g>
		</g>
	</g>
</g>
</svg>
