<?xml version="1.0" encoding="utf-8"?>
<!-- Generator: Adobe Illustrator 18.0.0, SVG Export Plug-In . SVG Version: 6.00 Build 0)  -->
<!DOCTYPE svg PUBLIC "-//W3C//DTD SVG 1.1//EN" "http://www.w3.org/Graphics/SVG/1.1/DTD/svg11.dtd">
<svg version="1.1" id="Layer_1" xmlns="http://www.w3.org/2000/svg" xmlns:xlink="http://www.w3.org/1999/xlink" x="0px" y="0px"
	 viewBox="0 0 48 48" enable-background="new 0 0 48 48" xml:space="preserve">
<g>
	<g>
		<g>
			<g>
				<path fill="#415A6B" d="M14.9,31.1H4V29c0-0.3,0.3-0.6,0.6-0.6h9.7c0.3,0,0.6,0.3,0.6,0.6V31.1z"/>
			</g>
			<g>
				<path fill="#415A6B" d="M12.9,29.1L10.5,1c0-0.6-0.5-1-1.1-1s-1,0.4-1.1,1L5.9,29.1H12.9z"/>
			</g>
		</g>
		<g>
			<g>
				<path fill="#E8EAE9" d="M46,31H2c-1.1,0-2,0.9-2,2v11c0,1.1,0.9,2,2,2h44c1.1,0,2-0.9,2-2V33C48,31.9,47.1,31,46,31z"/>
			</g>
			<g>
				<g>
					<rect x="3.4" y="46" fill="#CED6E0" width="5.3" height="2"/>
				</g>
				<g>
					<rect x="39.3" y="46" fill="#CED6E0" width="5.3" height="2"/>
				</g>
			</g>
		</g>
		<g>
			<circle fill="#F3705A" cx="6.9" cy="38.5" r="2.3"/>
			<circle fill="#8AD7F8" cx="14.7" cy="38.5" r="2.3"/>
			<circle fill="#FFD15C" cx="22.5" cy="38.5" r="2.3"/>
		</g>
		<g>
			<g>
				<path fill="#8AD7F8" d="M22.6,19.3c-0.4-0.4-0.4-1,0-1.4c4.5-4.5,4.5-11.7,0-16.2c-0.4-0.4-0.4-1,0-1.4c0.4-0.4,1-0.4,1.4,0
					c5.2,5.2,5.2,13.8,0,19C23.6,19.7,22.9,19.7,22.6,19.3z"/>
			</g>
			<g>
				<path fill="#8AD7F8" d="M19.7,16.5c-0.4-0.4-0.4-1,0-1.4c2.9-2.9,2.9-7.6,0-10.5c-0.4-0.4-0.4-1,0-1.4c0.4-0.4,1-0.4,1.4,0
					c3.7,3.7,3.7,9.7,0,13.3C20.8,16.8,20.1,16.8,19.7,16.5z"/>
			</g>
			<g>
				<path fill="#8AD7F8" d="M16.9,13.6c-0.4-0.4-0.4-1,0-1.4c1.3-1.3,1.3-3.5,0-4.8c-0.4-0.4-0.4-1,0-1.4c0.4-0.4,1-0.4,1.4,0
					c2.1,2.1,2.1,5.6,0,7.7C17.9,14,17.3,14,16.9,13.6z"/>
			</g>
		</g>
	</g>
</g>
</svg>
