<svg xmlns="http://www.w3.org/2000/svg" viewBox="0 0 24 24"><title>Artboard-10</title><g id="Layer-2" data-name="Layer"><path d="M2.594,8.914l9,4a1,1,0,0,0,.812,0l9-4a1,1,0,0,0,0-1.828l-9-4a1,1,0,0,0-.812,0l-9,4a1,1,0,0,0,0,1.828Z" style="fill:#4294ff"/><path d="M2.594,12.914l9,4a1,1,0,0,0,.812,0l9-4a1,1,0,0,0-.812-1.828L12,14.906l-8.594-3.82a1,1,0,1,0-.812,1.828Z" style="fill:#4294ff"/><path d="M20.594,15.086,12,18.906l-8.594-3.82a1,1,0,0,0-.812,1.828l9,4a1,1,0,0,0,.812,0l9-4a1,1,0,0,0-.812-1.828Z" style="fill:#4294ff"/></g></svg>